<?xml version="1.0" standalone="no"?>
<!DOCTYPE svg PUBLIC "-//W3C//DTD SVG 20010904//EN"
 "http://www.w3.org/TR/2001/REC-SVG-20010904/DTD/svg10.dtd">
<svg version="1.0" xmlns="http://www.w3.org/2000/svg"
 width="664.000000pt" height="664.000000pt" viewBox="0 0 664.000000 664.000000"
 preserveAspectRatio="xMidYMid meet">
<metadata>
Created by potrace 1.14, written by Peter Selinger 2001-2017
</metadata>
<g transform="translate(0.000000,664.000000) scale(0.100000,-0.100000)"
fill="#000000" stroke="none">
<path d="M3235 6620 c-27 -11 -147 -54 -265 -96 -118 -42 -251 -89 -295 -105
-44 -15 -138 -49 -210 -74 -71 -26 -146 -52 -165 -60 -19 -7 -82 -29 -140 -50
-58 -20 -128 -46 -156 -57 -29 -11 -58 -21 -65 -22 -17 -4 -44 -14 -86 -32
-17 -8 -34 -14 -38 -14 -8 0 -217 -74 -265 -93 -14 -6 -27 -11 -30 -12 -48
-14 -82 -26 -112 -39 -21 -9 -38 -13 -38 -10 0 4 -6 2 -12 -3 -7 -5 -42 -20
-78 -32 -36 -12 -72 -25 -80 -28 -8 -3 -19 -7 -25 -9 -10 -2 -395 -139 -425
-151 -8 -3 -19 -7 -25 -9 -18 -5 -129 -45 -150 -54 -11 -5 -40 -15 -65 -23
-25 -9 -90 -32 -145 -52 -55 -20 -115 -42 -133 -48 -33 -11 -34 -11 -27 -56 4
-25 8 -59 10 -76 6 -71 17 -171 21 -190 2 -11 7 -48 9 -81 3 -34 7 -70 9 -80
2 -11 7 -50 11 -89 4 -38 9 -83 11 -100 2 -16 6 -57 9 -90 3 -33 8 -67 10 -75
2 -8 7 -46 10 -83 4 -37 8 -78 11 -90 2 -12 6 -49 9 -82 3 -33 8 -78 11 -100
7 -52 13 -105 18 -157 8 -72 18 -162 21 -178 2 -8 6 -42 9 -75 4 -33 9 -79 11
-102 3 -24 7 -62 10 -85 2 -24 7 -65 10 -93 3 -27 8 -66 10 -85 2 -19 9 -71
14 -115 6 -44 13 -105 16 -135 3 -30 8 -71 10 -90 3 -19 7 -57 10 -85 3 -27 7
-66 9 -85 5 -33 9 -66 20 -165 3 -22 7 -65 11 -95 3 -30 7 -71 10 -90 8 -58
15 -116 20 -174 10 -97 14 -130 19 -161 2 -16 7 -61 11 -98 3 -37 8 -76 10
-85 1 -9 6 -44 9 -77 3 -33 8 -76 11 -95 3 -19 7 -57 10 -85 3 -27 8 -68 10
-90 3 -22 7 -58 9 -80 2 -22 6 -60 10 -85 7 -52 16 -141 20 -188 3 -36 10 -42
101 -92 33 -18 74 -40 90 -50 38 -22 115 -65 180 -100 65 -35 142 -78 180
-100 17 -10 57 -32 90 -50 33 -18 80 -44 105 -58 25 -14 70 -39 100 -55 30
-17 73 -41 95 -54 22 -12 56 -30 75 -40 19 -9 55 -29 80 -43 25 -15 76 -43
113 -64 37 -20 84 -46 105 -58 20 -11 62 -34 92 -51 30 -16 69 -38 85 -47 17
-10 57 -32 90 -50 33 -18 94 -52 135 -75 81 -45 184 -102 240 -131 19 -11 37
-21 40 -25 3 -3 22 -13 42 -22 20 -10 40 -22 43 -27 4 -6 11 -8 16 -5 5 4 9 2
9 -3 0 -5 8 -12 18 -15 9 -3 49 -24 87 -46 39 -22 88 -50 110 -61 22 -11 49
-26 60 -32 56 -35 70 -43 75 -43 3 0 32 -16 65 -35 118 -69 102 -68 193 -16
45 25 86 46 92 46 5 0 10 4 10 8 0 4 12 13 28 19 15 7 59 30 97 52 39 22 97
54 130 72 87 47 99 53 105 59 3 3 25 15 50 28 25 12 59 30 75 40 35 20 138 77
210 118 28 15 64 35 80 44 17 9 56 31 88 48 31 18 83 46 115 64 31 17 72 40
89 50 79 44 103 57 188 103 50 27 92 51 95 54 3 3 30 19 60 35 60 30 119 63
190 103 25 14 68 38 96 53 131 71 190 105 196 114 4 6 8 8 8 3 0 -4 18 4 40
18 22 14 41 25 44 25 2 0 47 25 101 55 53 30 101 55 106 55 5 0 9 5 9 10 0 6
9 10 20 10 11 0 20 4 20 9 0 5 12 14 28 20 23 9 103 53 155 86 16 10 20 27 33
140 3 33 8 76 10 95 2 19 7 55 9 80 3 25 8 68 11 95 4 28 7 66 9 85 2 19 4 35
5 35 1 0 3 14 5 30 12 125 17 169 21 188 2 12 6 49 9 82 3 33 8 76 10 95 8 61
16 124 20 165 2 22 7 60 10 85 6 47 13 106 19 175 3 22 7 54 9 70 5 27 17 138
22 190 2 17 11 95 21 180 1 11 5 45 7 75 3 30 8 71 12 90 3 19 7 58 10 85 5
49 8 76 21 185 7 66 13 111 19 165 2 22 6 56 9 75 4 34 16 130 21 180 12 118
17 158 20 180 3 14 7 53 10 87 3 35 7 78 10 96 7 41 13 92 20 172 4 33 8 71
11 85 4 27 17 153 18 183 0 9 3 17 6 17 3 0 5 15 5 33 1 31 12 145 20 197 2
14 6 50 9 80 4 30 8 72 11 92 3 20 7 58 10 84 2 25 7 63 10 84 4 24 1 41 -7
47 -7 5 -105 42 -218 82 -113 40 -306 109 -430 152 -124 44 -241 87 -260 95
-20 8 -42 16 -50 18 -8 2 -22 6 -30 9 -18 7 -226 81 -390 139 -63 22 -122 43
-130 46 -8 3 -17 6 -20 7 -3 1 -12 4 -20 8 -32 12 -162 58 -330 117 -96 34
-184 65 -195 70 -11 5 -40 16 -65 24 -25 8 -97 34 -160 56 -139 50 -207 74
-280 100 -30 10 -77 28 -105 38 -27 11 -52 20 -55 20 -3 0 -18 6 -35 12 -16 7
-34 13 -40 14 -5 2 -17 6 -25 9 -29 13 -245 87 -250 86 -3 0 -27 -9 -55 -19z"/>
</g>
</svg>
